<svg aria-hidden="true" style="position: absolute; width: 0; height: 0; overflow: hidden;" version="1.1" xmlns="http://www.w3.org/2000/svg" xmlns:xlink="http://www.w3.org/1999/xlink">
<defs>
<symbol id="icon-icon-mouse" viewBox="0 0 17 32">
<path d="M8.64 0c-4.771 0-8.64 3.907-8.64 8.73v14.541c0 4.819 3.869 8.73 8.64 8.73s8.64-3.907 8.64-8.73v-14.544c0.003-4.819-3.869-8.726-8.64-8.726zM16.127 23.267c0 4.17-3.355 7.562-7.487 7.562s-7.484-3.392-7.484-7.562v-14.541c0-4.17 3.355-7.562 7.487-7.562s7.487 3.395 7.487 7.562l-0.003 14.541zM10.896 26.243c0 1.258-1.011 2.278-2.256 2.278s-2.256-1.021-2.256-2.278c0-1.258 1.011-2.278 2.256-2.278s2.256 1.018 2.256 2.278zM10.272 21.882c0 0.912-0.732 1.648-1.632 1.648-0.903 0-1.632-0.739-1.632-1.648s0.732-1.648 1.632-1.648c0.903-0.003 1.632 0.733 1.632 1.648zM9.815 18.621c0 0.656-0.526 1.187-1.175 1.187-0.653 0-1.175-0.531-1.175-1.187 0-0.659 0.526-1.187 1.175-1.187 0.649 0.003 1.175 0.538 1.175 1.187z"></path>
</symbol>
<symbol id="icon-icon-facebook" viewBox="0 0 16 32">
<path d="M3.97 32v-15.015h-3.97v-5.406h3.97v-4.618c0-3.629 2.345-6.961 7.749-6.961 2.188 0 3.806 0.21 3.806 0.21l-0.127 5.048c0 0-1.65-0.016-3.451-0.016-1.949 0-2.261 0.898-2.261 2.389v3.948h5.867l-0.255 5.406h-5.611v15.015h-5.716z"></path>
</symbol>
<symbol id="icon-icon-instagram" viewBox="0 0 32 32">
<path d="M24.541 9.379c1.060 0 1.92-0.86 1.92-1.92s-0.86-1.92-1.92-1.92c-1.060 0-1.92 0.86-1.92 1.92s0.86 1.92 1.92 1.92z"></path>
<path d="M16 7.783c-1.625 0-3.213 0.482-4.565 1.385s-2.404 2.186-3.026 3.687c-0.622 1.501-0.785 3.153-0.468 4.747s1.1 3.058 2.249 4.207c1.149 1.149 2.613 1.932 4.207 2.249s3.246 0.154 4.747-0.467c1.501-0.622 2.784-1.675 3.687-3.026s1.385-2.94 1.385-4.565c0-2.179-0.866-4.269-2.406-5.809s-3.631-2.406-5.81-2.406zM16 21.333c-1.055 0-2.086-0.313-2.963-0.899s-1.561-1.419-1.964-2.394c-0.404-0.974-0.509-2.047-0.303-3.081s0.714-1.985 1.46-2.731c0.746-0.746 1.696-1.254 2.731-1.46s2.107-0.1 3.081 0.304c0.975 0.404 1.807 1.087 2.393 1.964s0.899 1.908 0.899 2.963c0 1.415-0.562 2.771-1.562 3.771s-2.357 1.562-3.771 1.562z"></path>
<path d="M16 2.883c4.272 0 4.779 0.016 6.465 0.093 1.015 0.012 2.019 0.198 2.971 0.551 0.69 0.266 1.317 0.674 1.84 1.197s0.931 1.15 1.197 1.84c0.352 0.951 0.539 1.956 0.551 2.971 0.077 1.687 0.093 2.193 0.093 6.467s-0.016 4.777-0.093 6.464c-0.012 1.014-0.198 2.019-0.551 2.971-0.266 0.69-0.674 1.317-1.197 1.84s-1.15 0.931-1.84 1.197c-0.951 0.352-1.956 0.539-2.971 0.551-1.687 0.077-2.193 0.093-6.465 0.093s-4.779-0.016-6.465-0.093c-1.014-0.012-2.019-0.198-2.971-0.551-0.69-0.266-1.317-0.674-1.84-1.197s-0.931-1.15-1.197-1.84c-0.352-0.951-0.539-1.956-0.551-2.971-0.077-1.687-0.093-2.193-0.093-6.465s0.016-4.779 0.093-6.465c0.012-1.014 0.198-2.019 0.551-2.971 0.266-0.69 0.674-1.317 1.197-1.84s1.15-0.931 1.84-1.197c0.951-0.352 1.956-0.539 2.971-0.551 1.687-0.077 2.193-0.093 6.465-0.093zM16 0c-4.345 0-4.891 0.019-6.597 0.096-1.327 0.027-2.64 0.278-3.883 0.744-1.063 0.411-2.028 1.040-2.834 1.846s-1.435 1.771-1.846 2.834c-0.466 1.243-0.717 2.557-0.744 3.884-0.077 1.707-0.096 2.249-0.096 6.596s0.019 4.891 0.096 6.597c0.027 1.327 0.278 2.64 0.744 3.883 0.411 1.063 1.040 2.028 1.846 2.834s1.771 1.435 2.834 1.846c1.243 0.466 2.557 0.717 3.884 0.744 1.707 0.077 2.251 0.096 6.596 0.096s4.891-0.019 6.597-0.096c1.327-0.027 2.641-0.278 3.884-0.744 1.063-0.411 2.028-1.040 2.834-1.846s1.435-1.771 1.846-2.834c0.465-1.243 0.716-2.557 0.743-3.884 0.077-1.707 0.096-2.249 0.096-6.596s-0.019-4.891-0.096-6.597c-0.027-1.327-0.278-2.64-0.744-3.883-0.411-1.063-1.040-2.028-1.846-2.834s-1.771-1.435-2.834-1.846c-1.243-0.465-2.557-0.716-3.884-0.743-1.707-0.080-2.249-0.097-6.596-0.097z"></path>
</symbol>
<symbol id="icon-icon-linkedin" viewBox="0 0 34 32">
<path d="M7.6 32v-21.59h-7.176v21.59h7.176zM4.012 7.46c2.502 0 4.060-1.658 4.060-3.73-0.047-2.119-1.558-3.73-4.013-3.73s-4.060 1.612-4.060 3.73c0 2.072 1.557 3.73 3.966 3.73h0.047zM11.572 32h7.176v-12.057c0-0.645 0.047-1.29 0.236-1.751 0.519-1.289 1.7-2.625 3.682-2.625 2.597 0 3.636 1.98 3.636 4.882v11.55h7.176v-12.38c0-6.632-3.54-9.717-8.262-9.717-3.871 0-5.571 2.164-6.515 3.638h0.048v-3.131h-7.176c0.094 2.026 0 21.59 0 21.59l-0 0z"></path>
</symbol>
<symbol id="icon-arrow-up" viewBox="0 0 32 32">
<path d="M16 1l-15 15h9v16h12v-16h9z"></path>
</symbol>
<symbol id="icon-icon-arrow" viewBox="0 0 35 32">
<path stroke-linejoin="round" stroke-linecap="round" stroke-miterlimit="4" stroke-width="4" d="M2.811 16h29.189"></path>
<path stroke-linejoin="round" stroke-linecap="round" stroke-miterlimit="4" stroke-width="4" d="M19.23 3.2l12.77 12.8-12.77 12.8"></path>
</symbol>
<symbol id="icon-burger" viewBox="0 0 32 32">
<path stroke-linejoin="round" stroke-linecap="butt" stroke-miterlimit="4" stroke-width="2.2857" d="M4 16h24M4 8h24M4 24h24"></path>
</symbol>
<symbol id="icon-close" viewBox="0 0 32 32">
<path d="M31.708 25.708c-0-0-0-0-0-0l-9.708-9.708 9.708-9.708c0-0 0-0 0-0 0.105-0.105 0.18-0.227 0.229-0.357 0.133-0.356 0.057-0.771-0.229-1.057l-4.586-4.586c-0.286-0.286-0.702-0.361-1.057-0.229-0.13 0.048-0.252 0.124-0.357 0.228 0 0-0 0-0 0l-9.708 9.708-9.708-9.708c-0-0-0-0-0-0-0.105-0.104-0.227-0.18-0.357-0.228-0.356-0.133-0.771-0.057-1.057 0.229l-4.586 4.586c-0.286 0.286-0.361 0.702-0.229 1.057 0.049 0.13 0.124 0.252 0.229 0.357 0 0 0 0 0 0l9.708 9.708-9.708 9.708c-0 0-0 0-0 0-0.104 0.105-0.18 0.227-0.229 0.357-0.133 0.355-0.057 0.771 0.229 1.057l4.586 4.586c0.286 0.286 0.702 0.361 1.057 0.229 0.13-0.049 0.252-0.124 0.357-0.229 0-0 0-0 0-0l9.708-9.708 9.708 9.708c0 0 0 0 0 0 0.105 0.105 0.227 0.18 0.357 0.229 0.356 0.133 0.771 0.057 1.057-0.229l4.586-4.586c0.286-0.286 0.362-0.702 0.229-1.057-0.049-0.13-0.124-0.252-0.229-0.357z"></path>
</symbol>
</defs>
</svg>
